<?xml version="1.0" standalone="no"?>
<!DOCTYPE svg PUBLIC "-//W3C//DTD SVG 20010904//EN"
 "http://www.w3.org/TR/2001/REC-SVG-20010904/DTD/svg10.dtd">
<svg version="1.0" xmlns="http://www.w3.org/2000/svg"
 width="192.000000pt" height="192.000000pt" viewBox="0 0 192.000000 192.000000"
 preserveAspectRatio="xMidYMid meet">
<metadata>
Created by potrace 1.14, written by Peter Selinger 2001-2017
</metadata>
<g transform="translate(0.000000,192.000000) scale(0.100000,-0.100000)"
fill="#000000" stroke="none">
<path d="M0 960 l0 -960 960 0 960 0 0 960 0 960 -960 0 -960 0 0 -960z m920
546 c0 -2 -14 -35 -31 -73 -24 -54 -30 -77 -25 -109 5 -41 5 -42 -27 -47 -18
-2 -33 -3 -35 -2 -2 1 -6 20 -9 41 -3 23 -22 61 -45 91 -56 76 -57 83 -15 83
28 0 40 -6 58 -31 20 -29 23 -30 32 -13 28 54 38 64 67 64 17 0 30 -2 30 -4z
m142 -43 l-4 -43 36 0 c34 0 36 2 36 33 0 42 3 45 41 39 l32 -5 -7 -76 c-12
-138 -13 -141 -53 -141 l-36 0 6 45 7 45 -34 0 c-31 0 -34 -2 -40 -41 -6 -40
-8 -41 -38 -35 -17 3 -33 7 -34 9 -2 1 21 197 25 215 1 2 16 2 34 0 31 -3 32
-4 29 -45z m-412 -40 c0 -6 -18 -18 -40 -24 -22 -7 -40 -18 -40 -26 0 -16 1
-16 36 -3 21 8 29 8 36 -2 16 -27 8 -46 -22 -53 -29 -6 -37 -15 -24 -27 3 -3
23 1 45 10 43 17 58 9 59 -29 0 -20 -135 -69 -149 -54 -9 10 -73 197 -68 201
1 1 34 13 72 27 64 23 71 24 83 9 6 -9 12 -22 12 -29z m780 -15 c0 -5 -5 -18
-10 -28 -10 -18 -13 -18 -51 -5 -51 18 -49 18 -49 1 0 -8 14 -17 30 -21 31 -7
37 -19 21 -44 -6 -9 -18 -11 -39 -6 -47 10 -47 -12 0 -28 36 -12 43 -18 40
-37 -1 -13 -5 -26 -7 -29 -7 -6 -155 41 -155 49 0 5 50 156 65 197 5 14 155
-33 155 -49z m98 -34 c17 -11 22 -25 22 -56 0 -34 3 -39 18 -33 66 28 68 28
96 10 l27 -18 -68 -37 c-41 -22 -77 -50 -91 -71 -29 -42 -31 -43 -60 -21 l-24
18 21 35 c16 27 21 51 21 112 0 42 3 77 8 77 4 0 18 -7 30 -16z m-1060 -86
l53 -92 -23 -18 c-31 -24 -33 -23 -57 18 l-21 35 -30 -17 -29 -18 21 -34 21
-35 -24 -18 c-13 -10 -28 -17 -32 -16 -4 1 -32 44 -62 94 l-54 92 22 16 c30
21 40 19 59 -15 17 -30 18 -31 48 -15 l31 16 -21 34 -21 33 23 16 c12 9 27 16
33 16 5 0 34 -42 63 -92z m661 -434 c67 -31 104 -44 122 -40 26 5 29 0 81
-117 l55 -122 -49 -33 -48 -33 -140 117 c-116 95 -139 119 -129 130 17 21 11
22 -48 15 -32 -5 -62 -16 -75 -29 -13 -11 -36 -25 -51 -31 -28 -11 -77 -5 -77
8 0 4 22 36 50 71 48 63 51 65 127 86 43 12 80 22 82 23 2 0 47 -20 100 -45z
m-338 -61 c-68 -88 -67 -100 8 -110 35 -5 50 -1 92 26 28 17 58 31 67 31 27
-1 342 -267 342 -290 0 -23 -36 -45 -53 -32 -7 5 -56 43 -109 85 -54 43 -102
77 -108 77 -23 0 -6 -20 63 -73 92 -70 121 -102 114 -121 -12 -30 -46 -16
-129 52 -99 81 -105 85 -112 74 -3 -5 33 -40 79 -77 47 -38 85 -72 85 -76 0
-14 -38 -29 -57 -22 -10 3 -40 25 -68 47 -80 66 -85 69 -93 62 -4 -4 18 -30
48 -56 41 -36 52 -51 44 -60 -20 -20 -57 -8 -61 20 -2 14 -11 32 -21 40 -9 8
-22 29 -27 45 -7 20 -18 31 -33 33 -13 2 -27 14 -32 28 -5 13 -21 29 -34 34
-14 5 -26 19 -28 32 -2 12 -15 29 -29 37 -28 15 -29 15 -94 -33 -8 -6 -29 2
-62 23 l-50 33 55 124 55 124 104 0 104 0 -60 -77z m-47 -236 c9 -15 4 -24
-31 -58 -36 -34 -46 -38 -63 -29 -29 15 -25 39 12 77 35 36 64 40 82 10z m59
-68 c8 -13 5 -24 -14 -47 -27 -35 -43 -44 -63 -36 -29 11 -27 37 6 71 34 35
54 39 71 12z m68 -55 c10 -13 7 -20 -22 -50 -58 -57 -98 -20 -42 38 30 32 45
35 64 12z m47 -77 c8 -38 -49 -66 -62 -31 -8 21 22 56 43 52 9 -2 17 -11 19
-21z"/>
</g>
</svg>
